<svg width="182" height="305" viewBox="0 0 182 305" fill="none" xmlns="http://www.w3.org/2000/svg">
<path fill-rule="evenodd" clip-rule="evenodd" d="M141.177 296.082L166.294 92.5229C166.37 91.8884 166.294 91.311 166.071 90.7998C165.85 90.3066 165.452 89.8164 164.875 89.3382C164.316 88.8781 163.712 88.5383 163.069 88.3158C162.44 88.1173 161.694 88 160.84 88H21.4845C20.6297 88 19.8837 88.1173 19.2524 88.3158C18.6121 88.5383 18.002 88.8781 17.4522 89.3382C16.8723 89.8164 16.4767 90.3096 16.2531 90.7998C16.0296 91.299 15.9511 91.8884 16.0296 92.5229L41.1473 296.082C41.4523 298.575 42.9927 300.77 45.2731 302.337C47.5535 303.907 50.5981 304.848 53.9417 304.848H128.376C131.723 304.848 134.767 303.907 137.039 302.337C139.328 300.767 140.869 298.575 141.177 296.082Z" fill="#242424"/>
<path fill-rule="evenodd" clip-rule="evenodd" d="M7.53891 53.5895H174.47C178.611 53.5895 182 56.9697 182 61.0926V76.1109C182 80.2309 178.611 83.608 174.47 83.608H7.53891C3.3919 83.608 0 80.2309 0 76.1109V61.0926C0 56.9667 3.3919 53.5895 7.53891 53.5895Z" fill="#C95E20"/>
<path fill-rule="evenodd" clip-rule="evenodd" d="M148.449 9.79768H140.69L136.8 0H127.965L123.96 9.79768H33.5535C28.0021 9.79768 23.4624 14.3206 23.4624 19.845V39.9455C23.4624 45.4669 27.999 49.9928 33.5535 49.9928H148.449C154.004 49.9928 158.535 45.4699 158.535 39.9455V19.845C158.535 14.3206 154.004 9.79768 148.449 9.79768Z" fill="#C95E20"/>
<g clip-path="url(#clip0)">
<path fill-rule="evenodd" clip-rule="evenodd" d="M69.2763 218.249C70.407 218.803 71.5859 219.136 72.7727 219.29C71.9522 218.351 71.1813 217.304 70.4138 216.078C68.8032 213.182 68.227 210.84 68.1033 207.758C68.1322 201.877 70.0443 197.46 72.635 192.672C75.1035 188.338 77.7964 184.599 80.7583 180.646C81.6406 179.286 82.7038 177.942 83.6145 176.572C83.8604 176.202 84.039 175.776 84.2482 175.389C84.363 175.085 84.3226 175.176 84.4299 175.514C84.6032 175.576 84.3809 175.15 84 174.482C76.0592 171.124 66.4749 177.688 62.3524 189.43C58.135 201.454 61.2351 214.349 69.2763 218.249ZM73.4264 219.347C72.5757 218.285 71.8487 217.122 71.1737 215.732C69.9186 212.942 69.5825 210.784 69.7661 207.976C70.4707 202.605 72.7488 198.746 75.6605 194.589C78.6791 190.922 81.4942 187.036 84.9429 183.755C86.1323 182.379 87.3323 180.996 88.4259 179.538C88.5141 179.393 88.8193 178.902 89.0766 178.448C93.5992 184.189 94.7794 194.137 91.481 203.541C87.9602 213.557 80.4767 219.798 73.4264 219.347Z" fill="#C95E20"/>
</g>
<g clip-path="url(#clip1)">
<path fill-rule="evenodd" clip-rule="evenodd" d="M121.117 203.76C120.732 204.378 120.257 204.894 119.724 205.319C119.844 204.588 119.908 203.814 119.916 202.948C119.839 200.96 119.422 199.563 118.564 197.907C116.798 194.825 114.551 193.056 111.863 191.29C109.369 189.726 106.944 188.54 104.324 187.32C103.489 186.86 102.571 186.462 101.719 186.005C101.489 185.882 101.275 185.71 101.058 185.567C100.911 185.44 100.958 185.476 101.007 185.685C100.941 185.768 100.922 185.48 100.908 185.018C103.776 180.956 110.4 181.633 115.906 186.611C121.542 191.71 123.873 199.384 121.117 203.76ZM119.423 205.538C119.521 204.734 119.528 203.912 119.443 202.986C119.224 201.157 118.745 199.925 117.819 198.503C115.876 195.884 113.617 194.515 110.96 193.173C108.397 192.119 105.869 190.891 103.211 190.165C102.222 189.785 101.226 189.406 100.259 188.956C100.172 188.905 99.8778 188.736 99.6171 188.571C99.124 192.897 101.512 198.466 105.92 202.454C110.619 206.7 116.123 207.814 119.423 205.538Z" fill="#733612"/>
</g>
<path d="M84.688 136.184V147.056C84.688 151.568 82.384 153.824 77.776 153.824C76.544 153.824 75.376 153.664 74.272 153.344C73.168 153.04 72.256 152.592 71.536 152L72.88 149.744C73.44 150.208 74.144 150.576 74.992 150.848C75.856 151.136 76.728 151.28 77.608 151.28C79.016 151.28 80.048 150.96 80.704 150.32C81.36 149.68 81.688 148.704 81.688 147.392V146.72C81.176 147.28 80.552 147.704 79.816 147.992C79.08 148.28 78.272 148.424 77.392 148.424C76.176 148.424 75.072 148.168 74.08 147.656C73.104 147.128 72.328 146.392 71.752 145.448C71.192 144.504 70.912 143.424 70.912 142.208C70.912 140.992 71.192 139.92 71.752 138.992C72.328 138.048 73.104 137.32 74.08 136.808C75.072 136.296 76.176 136.04 77.392 136.04C78.32 136.04 79.16 136.192 79.912 136.496C80.68 136.8 81.32 137.264 81.832 137.888V136.184H84.688ZM77.848 145.88C78.984 145.88 79.912 145.544 80.632 144.872C81.368 144.184 81.736 143.296 81.736 142.208C81.736 141.136 81.368 140.264 80.632 139.592C79.912 138.92 78.984 138.584 77.848 138.584C76.696 138.584 75.752 138.92 75.016 139.592C74.296 140.264 73.936 141.136 73.936 142.208C73.936 143.296 74.296 144.184 75.016 144.872C75.752 145.544 76.696 145.88 77.848 145.88ZM100.68 142.664C100.68 142.872 100.664 143.168 100.632 143.552H90.5761C90.7521 144.496 91.2081 145.248 91.9441 145.808C92.6961 146.352 93.6241 146.624 94.7281 146.624C96.1361 146.624 97.2961 146.16 98.2081 145.232L99.8161 147.08C99.2401 147.768 98.5121 148.288 97.6321 148.64C96.7521 148.992 95.7601 149.168 94.6561 149.168C93.2481 149.168 92.0081 148.888 90.9361 148.328C89.8641 147.768 89.0321 146.992 88.4401 146C87.8641 144.992 87.5761 143.856 87.5761 142.592C87.5761 141.344 87.8561 140.224 88.4161 139.232C88.9921 138.224 89.7841 137.44 90.7921 136.88C91.8001 136.32 92.9361 136.04 94.2001 136.04C95.4481 136.04 96.5601 136.32 97.5361 136.88C98.5281 137.424 99.2961 138.2 99.8401 139.208C100.4 140.2 100.68 141.352 100.68 142.664ZM94.2001 138.44C93.2401 138.44 92.4241 138.728 91.7521 139.304C91.0961 139.864 90.6961 140.616 90.5521 141.56H97.8241C97.6961 140.632 97.3041 139.88 96.6481 139.304C95.9921 138.728 95.1761 138.44 94.2001 138.44ZM111.266 148.304C110.914 148.592 110.482 148.808 109.97 148.952C109.474 149.096 108.946 149.168 108.386 149.168C106.978 149.168 105.89 148.8 105.122 148.064C104.354 147.328 103.97 146.256 103.97 144.848V138.68H101.858V136.28H103.97V133.352H106.97V136.28H110.402V138.68H106.97V144.776C106.97 145.4 107.122 145.88 107.426 146.216C107.73 146.536 108.17 146.696 108.746 146.696C109.418 146.696 109.978 146.52 110.426 146.168L111.266 148.304Z" fill="white"/>
<path d="M60.848 261.168C59.52 261.168 58.328 260.888 57.272 260.328C56.216 259.768 55.392 258.992 54.8 258C54.208 256.992 53.912 255.856 53.912 254.592C53.912 253.328 54.208 252.2 54.8 251.208C55.392 250.216 56.208 249.44 57.248 248.88C58.304 248.32 59.504 248.04 60.848 248.04C62.112 248.04 63.216 248.296 64.16 248.808C65.12 249.32 65.84 250.056 66.32 251.016L64.016 252.36C63.648 251.768 63.184 251.328 62.624 251.04C62.08 250.736 61.48 250.584 60.824 250.584C59.704 250.584 58.776 250.952 58.04 251.688C57.304 252.408 56.936 253.376 56.936 254.592C56.936 255.808 57.296 256.784 58.016 257.52C58.752 258.24 59.688 258.6 60.824 258.6C61.48 258.6 62.08 258.456 62.624 258.168C63.184 257.864 63.648 257.416 64.016 256.824L66.32 258.168C65.824 259.128 65.096 259.872 64.136 260.4C63.192 260.912 62.096 261.168 60.848 261.168ZM74.4858 261.168C73.1898 261.168 72.0218 260.888 70.9818 260.328C69.9418 259.768 69.1258 258.992 68.5338 258C67.9578 256.992 67.6698 255.856 67.6698 254.592C67.6698 253.328 67.9578 252.2 68.5338 251.208C69.1258 250.216 69.9418 249.44 70.9818 248.88C72.0218 248.32 73.1898 248.04 74.4858 248.04C75.7978 248.04 76.9738 248.32 78.0138 248.88C79.0538 249.44 79.8618 250.216 80.4378 251.208C81.0298 252.2 81.3258 253.328 81.3258 254.592C81.3258 255.856 81.0298 256.992 80.4378 258C79.8618 258.992 79.0538 259.768 78.0138 260.328C76.9738 260.888 75.7978 261.168 74.4858 261.168ZM74.4858 258.6C75.5898 258.6 76.5018 258.232 77.2218 257.496C77.9418 256.76 78.3018 255.792 78.3018 254.592C78.3018 253.392 77.9418 252.424 77.2218 251.688C76.5018 250.952 75.5898 250.584 74.4858 250.584C73.3818 250.584 72.4698 250.952 71.7498 251.688C71.0458 252.424 70.6938 253.392 70.6938 254.592C70.6938 255.792 71.0458 256.76 71.7498 257.496C72.4698 258.232 73.3818 258.6 74.4858 258.6ZM89.4026 245.448C88.1386 245.448 87.5066 246.136 87.5066 247.512V248.28H91.0346V250.68H87.6026V261H84.6026V250.68H82.4906V248.28H84.6026V247.464C84.6026 246.088 85.0026 245.008 85.8026 244.224C86.6026 243.424 87.7306 243.024 89.1866 243.024C90.3386 243.024 91.2426 243.256 91.8986 243.72L91.0586 245.976C90.5466 245.624 89.9946 245.448 89.4026 245.448ZM98.2619 245.448C96.9979 245.448 96.3659 246.136 96.3659 247.512V248.28H99.8939V250.68H96.4619V261H93.4619V250.68H91.3499V248.28H93.4619V247.464C93.4619 246.088 93.8619 245.008 94.6619 244.224C95.4619 243.424 96.5899 243.024 98.0459 243.024C99.1979 243.024 100.102 243.256 100.758 243.72L99.9179 245.976C99.4059 245.624 98.8539 245.448 98.2619 245.448ZM113.774 254.664C113.774 254.872 113.758 255.168 113.726 255.552H103.67C103.846 256.496 104.302 257.248 105.038 257.808C105.79 258.352 106.718 258.624 107.822 258.624C109.23 258.624 110.39 258.16 111.302 257.232L112.91 259.08C112.334 259.768 111.606 260.288 110.726 260.64C109.846 260.992 108.854 261.168 107.75 261.168C106.342 261.168 105.102 260.888 104.03 260.328C102.958 259.768 102.126 258.992 101.534 258C100.958 256.992 100.67 255.856 100.67 254.592C100.67 253.344 100.95 252.224 101.51 251.232C102.086 250.224 102.878 249.44 103.886 248.88C104.894 248.32 106.03 248.04 107.294 248.04C108.542 248.04 109.654 248.32 110.63 248.88C111.622 249.424 112.39 250.2 112.934 251.208C113.494 252.2 113.774 253.352 113.774 254.664ZM107.294 250.44C106.334 250.44 105.518 250.728 104.846 251.304C104.19 251.864 103.79 252.616 103.646 253.56H110.918C110.79 252.632 110.398 251.88 109.742 251.304C109.086 250.728 108.27 250.44 107.294 250.44ZM128.704 254.664C128.704 254.872 128.688 255.168 128.656 255.552H118.6C118.776 256.496 119.232 257.248 119.968 257.808C120.72 258.352 121.648 258.624 122.752 258.624C124.16 258.624 125.32 258.16 126.232 257.232L127.84 259.08C127.264 259.768 126.536 260.288 125.656 260.64C124.776 260.992 123.784 261.168 122.68 261.168C121.272 261.168 120.032 260.888 118.96 260.328C117.888 259.768 117.056 258.992 116.464 258C115.888 256.992 115.6 255.856 115.6 254.592C115.6 253.344 115.88 252.224 116.44 251.232C117.016 250.224 117.808 249.44 118.816 248.88C119.824 248.32 120.96 248.04 122.224 248.04C123.472 248.04 124.584 248.32 125.56 248.88C126.552 249.424 127.32 250.2 127.864 251.208C128.424 252.2 128.704 253.352 128.704 254.664ZM122.224 250.44C121.264 250.44 120.448 250.728 119.776 251.304C119.12 251.864 118.72 252.616 118.576 253.56H125.848C125.72 252.632 125.328 251.88 124.672 251.304C124.016 250.728 123.2 250.44 122.224 250.44Z" fill="white"/>
<defs>
<clipPath id="clip0">
<rect width="34.1551" height="44.8265" fill="white" transform="translate(57 176.554) rotate(-7.66204)"/>
</clipPath>
<clipPath id="clip1">
<rect width="19.3188" height="27.1184" fill="white" transform="matrix(-0.92372 0.383067 0.380616 0.924733 114.678 178.296)"/>
</clipPath>
</defs>
</svg>
