<svg width="592" height="567" viewBox="0 0 592 567" fill="none" xmlns="http://www.w3.org/2000/svg">
<path fill-rule="evenodd" clip-rule="evenodd" d="M328.004 51.2918C376.692 62.0824 427.704 63.7921 467.683 93.6038C512.06 126.695 552.064 171.034 561.692 225.55C571.411 280.577 540.125 331.702 518.861 383.377C495.294 440.649 488.908 519.113 431.419 542.133C373.411 565.36 315.835 508.365 256.634 488.379C209.635 472.512 155.534 472.634 120.761 437.255C86.0452 401.935 82.7078 349.093 72.1682 300.7C60.8188 248.59 38.7259 195.377 57.1831 145.341C76.635 92.6085 119.587 46.6599 172.679 28.2223C223.367 10.6198 275.619 39.6818 328.004 51.2918Z" fill="#96836F" fill-opacity="0.11"/>
</svg>
