<svg width="24" height="24" viewBox="0 0 24 24" fill="none" xmlns="http://www.w3.org/2000/svg">
<path d="M6.62879 0C2.96837 0 0 2.96837 0 6.62879V17.2348C0 20.8953 2.96837 23.8636 6.62879 23.8636H17.2348C20.8953 23.8636 23.8636 20.8953 23.8636 17.2348V6.62879C23.8636 2.96837 20.8953 0 17.2348 0H6.62879ZM19.8864 2.65152C20.6182 2.65152 21.2121 3.24545 21.2121 3.97727C21.2121 4.70909 20.6182 5.30303 19.8864 5.30303C19.1545 5.30303 18.5606 4.70909 18.5606 3.97727C18.5606 3.24545 19.1545 2.65152 19.8864 2.65152ZM11.9318 5.30303C15.5922 5.30303 18.5606 8.2714 18.5606 11.9318C18.5606 15.5922 15.5922 18.5606 11.9318 18.5606C8.2714 18.5606 5.30303 15.5922 5.30303 11.9318C5.30303 8.2714 8.2714 5.30303 11.9318 5.30303ZM11.9318 7.95455C10.877 7.95455 9.86534 8.37358 9.11946 9.11946C8.37358 9.86534 7.95455 10.877 7.95455 11.9318C7.95455 12.9867 8.37358 13.9983 9.11946 14.7442C9.86534 15.4901 10.877 15.9091 11.9318 15.9091C12.9867 15.9091 13.9983 15.4901 14.7442 14.7442C15.4901 13.9983 15.9091 12.9867 15.9091 11.9318C15.9091 10.877 15.4901 9.86534 14.7442 9.11946C13.9983 8.37358 12.9867 7.95455 11.9318 7.95455Z" fill="#C95E20"/>
</svg>
