<svg width="24" height="24" viewBox="0 0 24 24" fill="none" xmlns="http://www.w3.org/2000/svg">
<path d="M21.2802 0H2.71963C1.25467 0 0.0681152 1.18655 0.0681152 2.65152V21.2121C0.0681152 22.6771 1.25467 23.8636 2.71963 23.8636H21.2802C22.7452 23.8636 23.9318 22.6771 23.9318 21.2121V2.65152C23.9318 1.18655 22.7452 0 21.2802 0ZM6.34955 18.5606C5.4255 18.5606 4.67645 17.8116 4.67645 16.8875V10.9521C4.67777 10.0294 5.42683 9.2803 6.34955 9.2803C7.27361 9.2803 8.02266 10.0294 8.02266 10.9534V16.8888C8.02266 17.8116 7.27361 18.5606 6.34955 18.5606ZM6.29122 7.57936C5.26906 7.57936 4.5863 6.89792 4.5863 5.98845C4.5863 5.07898 5.26774 4.39754 6.40391 4.39754C7.42607 4.39754 8.10883 5.07898 8.10883 5.98845C8.10883 6.89792 7.42739 7.57936 6.29122 7.57936ZM18.3357 18.5606C17.4422 18.5606 16.717 17.8354 16.717 16.9419V13.4883C16.717 12.0856 15.8539 11.9318 15.5304 11.9318C15.2069 11.9318 14.1278 11.9782 14.1278 13.4883V16.9419C14.1278 17.8354 13.4026 18.5606 12.509 18.5606H12.4016C11.5081 18.5606 10.7829 17.8354 10.7829 16.9419V10.9534C10.7829 10.0294 11.5319 9.2803 12.456 9.2803C13.38 9.2803 14.1291 10.0294 14.1291 10.9534C14.1291 10.9534 14.503 9.2803 17.0431 9.2803C18.6592 9.2803 19.9545 10.5756 19.9545 13.4883V16.9419C19.9545 17.8354 19.2293 18.5606 18.3357 18.5606Z" fill="#C95E20"/>
</svg>
