<svg width="195" height="36" viewBox="0 0 195 36" fill="none" xmlns="http://www.w3.org/2000/svg">
<g clip-path="url(#clip0)">
<path fill-rule="evenodd" clip-rule="evenodd" d="M9.01069 33.8916C9.84179 34.2973 10.7084 34.5412 11.5809 34.6536C10.978 33.9659 10.4116 33.1988 9.84776 32.3008C8.66463 30.1798 8.24181 28.4642 8.15194 26.2061C8.17531 21.8974 9.58263 18.6608 11.489 15.152C13.3054 11.976 15.2865 9.23595 17.4654 6.33863C18.1146 5.3419 18.8967 4.35705 19.5668 3.35255C19.7476 3.08185 19.8791 2.76985 20.033 2.48625C20.1176 2.26323 20.0878 2.33007 20.1666 2.57741C20.294 2.6231 20.1307 2.31107 19.8509 1.82126C14.014 -0.635911 6.96533 4.17646 3.93039 12.7809C0.825491 21.5915 3.10018 31.0375 9.01069 33.8916ZM12.0614 34.6948C11.4364 33.9174 10.9023 33.065 10.4065 32.047C9.48478 30.0034 9.23845 28.4227 9.3744 26.3657C9.89432 22.43 11.5705 19.602 13.7126 16.5559C15.9332 13.8679 18.0042 11.0198 20.5409 8.61506C21.4158 7.60614 22.2985 6.59287 23.1031 5.52398C23.1679 5.4177 23.3925 5.05846 23.5818 4.72544C26.9048 8.92956 27.769 16.2174 25.3407 23.1083C22.7487 30.4478 17.2447 35.0226 12.0614 34.6948Z" fill="#C95E20"/>
</g>
<g clip-path="url(#clip1)">
<path fill-rule="evenodd" clip-rule="evenodd" d="M47.1455 23.2781C46.8619 23.7311 46.5127 24.1093 46.1214 24.4202C46.2096 23.8848 46.2563 23.3181 46.2626 22.6835C46.2053 21.2273 45.8988 20.2035 45.268 18.9907C43.9696 16.7327 42.3173 15.4375 40.3407 14.1433C38.5074 12.9981 36.7241 12.1294 34.7974 11.2352C34.1835 10.8987 33.5084 10.6067 32.882 10.272C32.713 10.1819 32.5558 10.0559 32.3961 9.95119C32.2883 9.85836 32.3228 9.88491 32.3583 10.0376C32.3099 10.0984 32.2962 9.8873 32.2862 9.54912C34.3949 6.57347 39.2654 7.06919 43.3137 10.7162C47.4578 14.4513 49.1716 20.0726 47.1455 23.2781ZM45.8996 24.5805C45.9719 23.9915 45.9774 23.3894 45.9147 22.7113C45.7532 21.3712 45.401 20.4693 44.7203 19.4273C43.2914 17.5087 41.6303 16.5058 39.6771 15.5228C37.7927 14.7507 35.9333 13.8512 33.9795 13.3191C33.2521 13.0413 32.5194 12.7634 31.8083 12.4337C31.745 12.3965 31.5283 12.2725 31.3366 12.1521C30.9741 15.3206 32.7302 19.4006 35.9712 22.3219C39.426 25.4318 43.4732 26.2483 45.8996 24.5805Z" fill="#733612"/>
</g>
<path d="M84.688 13.184V24.056C84.688 28.568 82.384 30.824 77.776 30.824C76.544 30.824 75.376 30.664 74.272 30.344C73.168 30.04 72.256 29.592 71.536 29L72.88 26.744C73.44 27.208 74.144 27.576 74.992 27.848C75.856 28.136 76.728 28.28 77.608 28.28C79.016 28.28 80.048 27.96 80.704 27.32C81.36 26.68 81.688 25.704 81.688 24.392V23.72C81.176 24.28 80.552 24.704 79.816 24.992C79.08 25.28 78.272 25.424 77.392 25.424C76.176 25.424 75.072 25.168 74.08 24.656C73.104 24.128 72.328 23.392 71.752 22.448C71.192 21.504 70.912 20.424 70.912 19.208C70.912 17.992 71.192 16.92 71.752 15.992C72.328 15.048 73.104 14.32 74.08 13.808C75.072 13.296 76.176 13.04 77.392 13.04C78.32 13.04 79.16 13.192 79.912 13.496C80.68 13.8 81.32 14.264 81.832 14.888V13.184H84.688ZM77.848 22.88C78.984 22.88 79.912 22.544 80.632 21.872C81.368 21.184 81.736 20.296 81.736 19.208C81.736 18.136 81.368 17.264 80.632 16.592C79.912 15.92 78.984 15.584 77.848 15.584C76.696 15.584 75.752 15.92 75.016 16.592C74.296 17.264 73.936 18.136 73.936 19.208C73.936 20.296 74.296 21.184 75.016 21.872C75.752 22.544 76.696 22.88 77.848 22.88ZM100.68 19.664C100.68 19.872 100.664 20.168 100.632 20.552H90.5761C90.7521 21.496 91.2081 22.248 91.9441 22.808C92.6961 23.352 93.6241 23.624 94.7281 23.624C96.1361 23.624 97.2961 23.16 98.2081 22.232L99.8161 24.08C99.2401 24.768 98.5121 25.288 97.6321 25.64C96.7521 25.992 95.7601 26.168 94.6561 26.168C93.2481 26.168 92.0081 25.888 90.9361 25.328C89.8641 24.768 89.0321 23.992 88.4401 23C87.8641 21.992 87.5761 20.856 87.5761 19.592C87.5761 18.344 87.8561 17.224 88.4161 16.232C88.9921 15.224 89.7841 14.44 90.7921 13.88C91.8001 13.32 92.9361 13.04 94.2001 13.04C95.4481 13.04 96.5601 13.32 97.5361 13.88C98.5281 14.424 99.2961 15.2 99.8401 16.208C100.4 17.2 100.68 18.352 100.68 19.664ZM94.2001 15.44C93.2401 15.44 92.4241 15.728 91.7521 16.304C91.0961 16.864 90.6961 17.616 90.5521 18.56H97.8241C97.6961 17.632 97.3041 16.88 96.6481 16.304C95.9921 15.728 95.1761 15.44 94.2001 15.44ZM111.266 25.304C110.914 25.592 110.482 25.808 109.97 25.952C109.474 26.096 108.946 26.168 108.386 26.168C106.978 26.168 105.89 25.8 105.122 25.064C104.354 24.328 103.97 23.256 103.97 21.848V15.68H101.858V13.28H103.97V10.352H106.97V13.28H110.402V15.68H106.97V21.776C106.97 22.4 107.122 22.88 107.426 23.216C107.73 23.536 108.17 23.696 108.746 23.696C109.418 23.696 109.978 23.52 110.426 23.168L111.266 25.304ZM114.928 26.168C114.384 26.168 113.92 25.984 113.536 25.616C113.152 25.232 112.96 24.752 112.96 24.176C112.96 23.584 113.144 23.104 113.512 22.736C113.896 22.368 114.368 22.184 114.928 22.184C115.488 22.184 115.952 22.368 116.32 22.736C116.704 23.104 116.896 23.584 116.896 24.176C116.896 24.752 116.704 25.232 116.32 25.616C115.936 25.984 115.472 26.168 114.928 26.168ZM125.473 26.168C124.145 26.168 122.953 25.888 121.897 25.328C120.841 24.768 120.017 23.992 119.425 23C118.833 21.992 118.537 20.856 118.537 19.592C118.537 18.328 118.833 17.2 119.425 16.208C120.017 15.216 120.833 14.44 121.873 13.88C122.929 13.32 124.129 13.04 125.473 13.04C126.737 13.04 127.841 13.296 128.785 13.808C129.745 14.32 130.465 15.056 130.945 16.016L128.641 17.36C128.273 16.768 127.809 16.328 127.249 16.04C126.705 15.736 126.105 15.584 125.449 15.584C124.329 15.584 123.401 15.952 122.665 16.688C121.929 17.408 121.561 18.376 121.561 19.592C121.561 20.808 121.921 21.784 122.641 22.52C123.377 23.24 124.313 23.6 125.449 23.6C126.105 23.6 126.705 23.456 127.249 23.168C127.809 22.864 128.273 22.416 128.641 21.824L130.945 23.168C130.449 24.128 129.721 24.872 128.761 25.4C127.817 25.912 126.721 26.168 125.473 26.168ZM139.111 26.168C137.815 26.168 136.647 25.888 135.607 25.328C134.567 24.768 133.751 23.992 133.159 23C132.583 21.992 132.295 20.856 132.295 19.592C132.295 18.328 132.583 17.2 133.159 16.208C133.751 15.216 134.567 14.44 135.607 13.88C136.647 13.32 137.815 13.04 139.111 13.04C140.423 13.04 141.599 13.32 142.639 13.88C143.679 14.44 144.487 15.216 145.063 16.208C145.655 17.2 145.951 18.328 145.951 19.592C145.951 20.856 145.655 21.992 145.063 23C144.487 23.992 143.679 24.768 142.639 25.328C141.599 25.888 140.423 26.168 139.111 26.168ZM139.111 23.6C140.215 23.6 141.127 23.232 141.847 22.496C142.567 21.76 142.927 20.792 142.927 19.592C142.927 18.392 142.567 17.424 141.847 16.688C141.127 15.952 140.215 15.584 139.111 15.584C138.007 15.584 137.095 15.952 136.375 16.688C135.671 17.424 135.319 18.392 135.319 19.592C135.319 20.792 135.671 21.76 136.375 22.496C137.095 23.232 138.007 23.6 139.111 23.6ZM154.028 10.448C152.764 10.448 152.132 11.136 152.132 12.512V13.28H155.66V15.68H152.228V26H149.228V15.68H147.116V13.28H149.228V12.464C149.228 11.088 149.628 10.008 150.428 9.224C151.228 8.424 152.356 8.024 153.812 8.024C154.964 8.024 155.868 8.256 156.524 8.72L155.684 10.976C155.172 10.624 154.62 10.448 154.028 10.448ZM162.887 10.448C161.623 10.448 160.991 11.136 160.991 12.512V13.28H164.519V15.68H161.087V26H158.087V15.68H155.975V13.28H158.087V12.464C158.087 11.088 158.487 10.008 159.287 9.224C160.087 8.424 161.215 8.024 162.671 8.024C163.823 8.024 164.727 8.256 165.383 8.72L164.543 10.976C164.031 10.624 163.479 10.448 162.887 10.448ZM178.399 19.664C178.399 19.872 178.383 20.168 178.351 20.552H168.295C168.471 21.496 168.927 22.248 169.663 22.808C170.415 23.352 171.343 23.624 172.447 23.624C173.855 23.624 175.015 23.16 175.927 22.232L177.535 24.08C176.959 24.768 176.231 25.288 175.351 25.64C174.471 25.992 173.479 26.168 172.375 26.168C170.967 26.168 169.727 25.888 168.655 25.328C167.583 24.768 166.751 23.992 166.159 23C165.583 21.992 165.295 20.856 165.295 19.592C165.295 18.344 165.575 17.224 166.135 16.232C166.711 15.224 167.503 14.44 168.511 13.88C169.519 13.32 170.655 13.04 171.919 13.04C173.167 13.04 174.279 13.32 175.255 13.88C176.247 14.424 177.015 15.2 177.559 16.208C178.119 17.2 178.399 18.352 178.399 19.664ZM171.919 15.44C170.959 15.44 170.143 15.728 169.471 16.304C168.815 16.864 168.415 17.616 168.271 18.56H175.543C175.415 17.632 175.023 16.88 174.367 16.304C173.711 15.728 172.895 15.44 171.919 15.44ZM193.329 19.664C193.329 19.872 193.313 20.168 193.281 20.552H183.225C183.401 21.496 183.857 22.248 184.593 22.808C185.345 23.352 186.273 23.624 187.377 23.624C188.785 23.624 189.945 23.16 190.857 22.232L192.465 24.08C191.889 24.768 191.161 25.288 190.281 25.64C189.401 25.992 188.409 26.168 187.305 26.168C185.897 26.168 184.657 25.888 183.585 25.328C182.513 24.768 181.681 23.992 181.089 23C180.513 21.992 180.225 20.856 180.225 19.592C180.225 18.344 180.505 17.224 181.065 16.232C181.641 15.224 182.433 14.44 183.441 13.88C184.449 13.32 185.585 13.04 186.849 13.04C188.097 13.04 189.209 13.32 190.185 13.88C191.177 14.424 191.945 15.2 192.489 16.208C193.049 17.2 193.329 18.352 193.329 19.664ZM186.849 15.44C185.889 15.44 185.073 15.728 184.401 16.304C183.745 16.864 183.345 17.616 183.201 18.56H190.473C190.345 17.632 189.953 16.88 189.297 16.304C188.641 15.728 187.825 15.44 186.849 15.44Z" fill="#242424"/>
<defs>
<clipPath id="clip0">
<rect width="25.1124" height="32.8393" fill="white" transform="translate(0 3.34821) rotate(-7.66204)"/>
</clipPath>
<clipPath id="clip1">
<rect width="14.1972" height="19.8761" fill="white" transform="matrix(-0.924228 0.381841 0.381841 0.924228 42.4106 4.62457)"/>
</clipPath>
</defs>
</svg>
