<svg width="50" height="36" viewBox="0 0 50 36" fill="none" xmlns="http://www.w3.org/2000/svg">
<g clip-path="url(#clip0)">
<path fill-rule="evenodd" clip-rule="evenodd" d="M9.01069 33.8916C9.84179 34.2973 10.7084 34.5412 11.5809 34.6536C10.978 33.9659 10.4116 33.1988 9.84776 32.3008C8.66463 30.1798 8.24181 28.4642 8.15194 26.2061C8.17531 21.8974 9.58263 18.6608 11.489 15.152C13.3054 11.976 15.2865 9.23595 17.4654 6.33863C18.1146 5.3419 18.8967 4.35705 19.5668 3.35255C19.7476 3.08185 19.8791 2.76985 20.033 2.48625C20.1176 2.26323 20.0878 2.33007 20.1666 2.57741C20.294 2.6231 20.1307 2.31107 19.8509 1.82126C14.014 -0.635911 6.96533 4.17646 3.93039 12.7809C0.825491 21.5915 3.10018 31.0375 9.01069 33.8916ZM12.0614 34.6948C11.4364 33.9174 10.9023 33.065 10.4065 32.047C9.48478 30.0034 9.23845 28.4227 9.3744 26.3657C9.89432 22.43 11.5705 19.602 13.7126 16.5559C15.9332 13.8679 18.0042 11.0198 20.5409 8.61506C21.4158 7.60614 22.2985 6.59287 23.1031 5.52398C23.1679 5.4177 23.3925 5.05846 23.5818 4.72544C26.9048 8.92956 27.769 16.2174 25.3407 23.1083C22.7487 30.4478 17.2447 35.0226 12.0614 34.6948Z" fill="#C95E20"/>
</g>
<g clip-path="url(#clip1)">
<path fill-rule="evenodd" clip-rule="evenodd" d="M47.1455 23.2781C46.8619 23.7311 46.5127 24.1093 46.1214 24.4202C46.2096 23.8848 46.2563 23.3181 46.2626 22.6835C46.2053 21.2273 45.8988 20.2035 45.268 18.9907C43.9696 16.7327 42.3173 15.4375 40.3407 14.1433C38.5074 12.9981 36.7241 12.1294 34.7974 11.2352C34.1835 10.8987 33.5084 10.6067 32.882 10.272C32.713 10.1819 32.5558 10.0559 32.3961 9.95119C32.2883 9.85836 32.3228 9.88491 32.3583 10.0376C32.3099 10.0984 32.2962 9.8873 32.2862 9.54912C34.3949 6.57347 39.2654 7.06919 43.3137 10.7162C47.4578 14.4513 49.1716 20.0726 47.1455 23.2781ZM45.8996 24.5805C45.9719 23.9915 45.9774 23.3894 45.9147 22.7113C45.7532 21.3712 45.401 20.4693 44.7203 19.4273C43.2915 17.5087 41.6303 16.5058 39.6771 15.5228C37.7927 14.7507 35.9333 13.8512 33.9795 13.3191C33.2521 13.0413 32.5194 12.7634 31.8083 12.4337C31.745 12.3965 31.5283 12.2725 31.3366 12.1521C30.9741 15.3206 32.7302 19.4006 35.9712 22.3219C39.426 25.4318 43.4732 26.2483 45.8996 24.5805Z" fill="#733612"/>
</g>
<defs>
<clipPath id="clip0">
<rect width="25.1124" height="32.8393" fill="white" transform="translate(0 3.34821) rotate(-7.66204)"/>
</clipPath>
<clipPath id="clip1">
<rect width="14.1972" height="19.8761" fill="white" transform="matrix(-0.924228 0.381841 0.381841 0.924228 42.4106 4.62457)"/>
</clipPath>
</defs>
</svg>
