<svg width="24" height="24" viewBox="0 0 24 24" fill="none" xmlns="http://www.w3.org/2000/svg">
<path d="M18.6971 0H5.4395C2.51091 0 0.136475 2.37443 0.136475 5.30303V18.5606C0.136475 21.4892 2.51091 23.8636 5.4395 23.8636H18.6971C21.6257 23.8636 24.0001 21.4892 24.0001 18.5606V5.30303C24.0001 2.37443 21.6257 0 18.6971 0ZM18.7634 8.63598C18.7634 8.75 18.7634 8.86269 18.7634 9.09072C18.7634 13.4087 15.4675 18.4095 9.44462 18.4095C7.627 18.4095 5.92208 17.8407 4.44519 16.9326C4.67189 16.9326 5.01394 16.9326 5.24064 16.9326C6.71753 16.9326 8.19575 16.3638 9.33193 15.5684C7.85503 15.5684 6.71886 14.5462 6.26413 13.296C6.49083 13.296 6.71886 13.41 6.83288 13.41C7.17359 13.41 7.40163 13.41 7.74235 13.296C6.26545 12.9553 5.12928 11.7051 5.12928 10.1142C5.58401 10.3409 6.03875 10.4549 6.60617 10.5689C5.6967 9.77348 5.12928 8.86402 5.12928 7.72784C5.12928 7.15909 5.24329 6.59167 5.58401 6.13693C7.17492 8.06856 9.56129 9.43276 12.2884 9.54545C12.2884 9.31875 12.1744 9.09072 12.1744 8.75C12.1744 6.93239 13.6512 5.45417 15.4702 5.45417C16.3797 5.45417 17.2878 5.79489 17.8565 6.47633C18.652 6.36231 19.3334 6.02159 19.9022 5.68087C19.6755 6.47633 19.1067 7.04508 18.4253 7.49848C19.1067 7.38447 19.6755 7.27178 20.3569 6.92973C19.8995 7.61383 19.3321 8.18125 18.7634 8.63598Z" fill="#C95E20"/>
</svg>
